<svg width="170" height="197" viewBox="0 0 170 197" fill="none" xmlns="http://www.w3.org/2000/svg">
<path d="M169.766 131.797L166.641 116.641C165.508 111.094 160.078 107.539 154.531 108.672L150.273 109.531L146.367 90.5078C144.883 83.3594 140.703 77.1875 134.609 73.164C129.687 69.9219 123.945 68.3984 118.164 68.7109L118.516 66.4844C118.672 65.3906 118.359 64.2969 117.656 63.4766C116.953 62.6562 115.898 62.1484 114.805 62.1484H106.055C106.055 61.914 106.094 61.7187 106.094 61.4844C106.094 40.8984 89.6484 23.7109 68.0082 20L80.0003 6.21093C80.9769 5.11718 81.2113 3.55468 80.5863 2.1875C79.9613 0.82031 78.6331 0 77.1878 0H41.4066C39.9222 0 38.5941 0.85937 38.0081 2.1875C37.4222 3.51562 37.6175 5.07812 38.5941 6.21093L50.5863 20C28.9457 23.7109 12.5003 40.8594 12.5003 61.4844C12.5003 61.7187 12.5394 61.914 12.5394 62.1484H3.75031C2.65661 62.1484 1.60191 62.6172 0.898811 63.4766C0.195711 64.2969 -0.116789 65.3906 0.0394108 66.4844L17.0316 175.664C18.8675 187.539 28.0472 196.172 38.7894 196.172H79.6878C90.4694 196.172 99.6094 187.539 101.445 175.664L114.648 90.9375L135.664 193.164C135.859 194.141 136.445 195 137.266 195.547C137.891 195.938 138.594 196.172 139.336 196.172C139.57 196.172 139.844 196.133 140.078 196.094C147.226 194.61 153.398 190.469 157.422 184.336C161.445 178.242 162.851 170.938 161.367 163.75L157.461 144.727L161.719 143.867C164.414 143.32 166.719 141.758 168.203 139.453C169.766 137.188 170.312 134.453 169.766 131.797ZM68.9456 7.5L59.2972 18.5937L49.6488 7.5H68.9456ZM20.0003 61.4844C20.0003 42.3437 37.6175 26.7187 59.2972 26.7187C80.9769 26.7187 98.5944 42.3047 98.5944 61.4844C98.5944 61.7187 98.5554 61.914 98.5554 62.1484H20.0003V61.4844ZM94.1414 174.531C92.8514 182.735 86.8364 188.672 79.766 188.672H38.8285C31.7582 188.672 25.7425 182.735 24.4535 174.531L8.12531 69.6484H110.43L94.1414 174.531ZM151.25 180.235C149.023 183.594 145.898 186.172 142.266 187.656L119.336 76.1328C123.203 76.0547 127.148 77.1875 130.547 79.414C134.961 82.3437 138.008 86.7969 139.062 91.9922L146.601 128.633L149.453 142.578L154.101 165.274C155.156 170.469 154.141 175.781 151.25 180.235ZM162.031 135.352C161.641 135.977 161.016 136.367 160.273 136.524L156.016 137.383L151.797 116.836L156.055 115.977C157.539 115.664 158.984 116.641 159.297 118.125L162.422 133.281C162.539 134.024 162.422 134.727 162.031 135.352Z" fill="#5964E0"/>
<path d="M59.4534 170.078C61.5237 170.078 63.2034 168.399 63.2034 166.328V89.414C63.2034 87.3437 61.5237 85.664 59.4534 85.664C57.383 85.664 55.7034 87.3437 55.7034 89.414V166.367C55.7034 168.438 57.383 170.078 59.4534 170.078ZM79.2971 169.531C79.4534 169.531 79.6096 169.571 79.7659 169.571C81.6409 169.571 83.2424 168.164 83.4768 166.289L88.6333 123.36C88.8673 121.289 87.4223 119.453 85.3523 119.18C83.2815 118.946 81.4456 120.391 81.1721 122.461L76.0159 165.391C75.7815 167.422 77.2268 169.258 79.2971 169.531ZM86.9533 105.977C87.1093 105.977 87.2663 106.016 87.4223 106.016C89.2973 106.016 90.8983 104.61 91.1333 102.735L92.6953 89.8828C92.9303 87.8125 91.4843 85.9765 89.4143 85.7031C87.3443 85.4687 85.5083 86.914 85.2343 88.9844L83.6721 101.836C83.4377 103.867 84.8833 105.742 86.9533 105.977ZM37.2268 149.57C35.1565 149.805 33.7112 151.68 33.9455 153.75L35.469 166.25C35.7034 168.164 37.3049 169.531 39.1799 169.531C39.3362 169.531 39.4924 169.531 39.6487 169.492C41.719 169.258 43.1643 167.383 42.9299 165.313L41.4065 152.813C41.133 150.781 39.2971 149.336 37.2268 149.57ZM31.6799 134.922C31.9143 136.836 33.5159 138.203 35.3909 138.203C35.5471 138.203 35.7034 138.203 35.8596 138.164C37.9299 137.93 39.3752 136.055 39.1409 133.985L33.7112 88.9453C33.4768 86.875 31.6018 85.4297 29.5315 85.664C27.4612 85.8984 26.0159 87.7734 26.2502 89.8437L31.6799 134.922ZM83.9065 42.4609C80.3127 38.4375 76.1721 36.3672 73.3206 35.3516C71.3674 34.6484 69.219 35.6641 68.5159 37.6172C67.8127 39.5703 68.8284 41.7187 70.7815 42.4219C72.8127 43.1641 75.7424 44.6094 78.3205 47.4609C80.0784 49.4141 81.4065 51.7969 82.1877 54.3359C82.6956 55.9375 84.1799 56.9922 85.7813 56.9922C86.1333 56.9922 86.5233 56.9531 86.8753 56.8359C88.8673 56.25 89.9613 54.1406 89.3753 52.1484C88.2813 48.5547 86.3673 45.2344 83.9065 42.4609Z" fill="#5964E0"/>
</svg>
