<svg width="200" height="200" viewBox="0 0 200 200" fill="none" xmlns="http://www.w3.org/2000/svg">
<path d="M22.5583 41.8798H36.9909L49.4612 171.743C50.0509 178.119 53.0065 184.044 57.746 188.35C62.4855 192.656 68.6655 195.031 75.0688 195.008H129.183C135.586 195.032 141.767 192.657 146.506 188.351C151.246 184.045 154.202 178.12 154.79 171.743L167.256 41.8798H181.693C182.827 41.8798 183.914 41.4294 184.716 40.6277C185.518 39.8259 185.968 38.7386 185.968 37.6047C185.968 36.4709 185.518 35.3836 184.716 34.5818C183.914 33.7801 182.827 33.3297 181.693 33.3297H129.55L122.107 10.4581C121.827 9.601 121.282 8.85443 120.552 8.32476C119.822 7.7951 118.944 7.50937 118.042 7.5083H86.2139C85.3124 7.50897 84.4342 7.7946 83.7048 8.32439C82.9753 8.85418 82.4321 9.60099 82.1526 10.4581L74.7012 33.3297H22.5583C21.4245 33.3297 20.3371 33.7801 19.5354 34.5818C18.7336 35.3836 18.2832 36.4709 18.2832 37.6047C18.2832 38.7386 18.7336 39.8259 19.5354 40.6277C20.3371 41.4294 21.4245 41.8798 22.5583 41.8798ZM89.3176 16.0584H114.934L120.56 33.3297H83.6959L89.3176 16.0584ZM77.8049 41.8798H158.672L146.279 170.922C145.885 175.18 143.913 179.136 140.748 182.011C137.584 184.887 133.458 186.473 129.183 186.458H75.0688C71.2024 186.466 67.4482 185.159 64.4218 182.753C61.3955 180.346 59.2768 176.983 58.4132 173.214H118.08C119.214 173.214 120.302 172.764 121.103 171.962C121.905 171.16 122.355 170.073 122.355 168.939C122.355 167.805 121.905 166.718 121.103 165.916C120.302 165.114 119.214 164.664 118.08 164.664H57.3872L57.3744 164.668L47.1997 58.762C56.1603 58.7364 76.5053 58.7663 90.9763 58.8048H90.9892C92.123 58.8059 93.2108 58.3566 94.0133 57.5557C94.8159 56.7547 95.2674 55.6678 95.2685 54.534C95.2696 53.4002 94.8203 52.3123 94.0194 51.5098C93.2185 50.7073 92.1315 50.2558 90.9977 50.2546C87.0347 50.2418 57.4214 50.1691 46.3789 50.2162L45.5795 41.8798H77.8049Z" fill="#939BF4"/>
<path d="M77.8049 81.3557C76.6711 81.3557 75.5837 81.8061 74.782 82.6078C73.9802 83.4096 73.5298 84.497 73.5298 85.6308V142.711C73.5298 143.845 73.9802 144.933 74.782 145.734C75.5837 146.536 76.6711 146.986 77.8049 146.986C78.9387 146.986 80.0261 146.536 80.8278 145.734C81.6295 144.933 82.08 143.845 82.08 142.711V85.6308C82.08 84.497 81.6295 83.4096 80.8278 82.6078C80.0261 81.8061 78.9387 81.3557 77.8049 81.3557ZM102.126 146.986C103.26 146.986 104.347 146.536 105.149 145.734C105.95 144.933 106.401 143.845 106.401 142.711V85.6308C106.401 84.497 105.95 83.4096 105.149 82.6078C104.347 81.8061 103.26 81.3557 102.126 81.3557C100.992 81.3557 99.9045 81.8061 99.1028 82.6078C98.301 83.4096 97.8506 84.497 97.8506 85.6308V142.711C97.8506 143.845 98.301 144.933 99.1028 145.734C99.9045 146.536 100.992 146.986 102.126 146.986ZM126.442 146.986C127.576 146.986 128.664 146.536 129.465 145.734C130.267 144.933 130.717 143.845 130.717 142.711V85.6308C130.717 84.497 130.267 83.4096 129.465 82.6078C128.664 81.8061 127.576 81.3557 126.442 81.3557C125.309 81.3557 124.221 81.8061 123.419 82.6078C122.618 83.4096 122.167 84.497 122.167 85.6308V142.711C122.167 143.845 122.618 144.933 123.419 145.734C124.221 146.536 125.309 146.986 126.442 146.986ZM124.647 168.939C124.647 170.073 125.097 171.16 125.899 171.962C126.701 172.764 127.788 173.214 128.922 173.214H134.338C135.472 173.214 136.56 172.764 137.361 171.962C138.163 171.16 138.613 170.073 138.613 168.939C138.613 167.805 138.163 166.718 137.361 165.916C136.56 165.114 135.472 164.664 134.338 164.664H128.922C127.788 164.664 126.701 165.114 125.899 165.916C125.097 166.718 124.647 167.805 124.647 168.939ZM102.126 58.8048H106.88C108.013 58.8048 109.101 58.3544 109.903 57.5526C110.704 56.7509 111.155 55.6635 111.155 54.5297C111.155 53.3959 110.704 52.3085 109.903 51.5068C109.101 50.7051 108.013 50.2547 106.88 50.2547H102.126C100.992 50.2547 99.9045 50.7051 99.1028 51.5068C98.301 52.3085 97.8506 53.3959 97.8506 54.5297C97.8506 55.6635 98.301 56.7509 99.1028 57.5526C99.9045 58.3544 100.992 58.8048 102.126 58.8048Z" fill="#939BF4"/>
</svg>
